<svg xmlns="http://www.w3.org/2000/svg" viewBox="0 0 800 600" role="img" aria-labelledby="title">
  <title id="title">One agent delegating work to three focused agents</title>
  <g fill="none" stroke="#0a0a0a" stroke-width="14" stroke-linecap="square" stroke-linejoin="miter">
    <path d="m400 54 84 48v96l-84 48-84-48v-96z" fill="#0a0a0a"/>
    <path d="M400 246v64M200 310h400M200 310v40M400 310v40M600 310v40"/>
    <path d="m200 350 82 47v94l-82 47-82-47v-94zM400 350l82 47v94l-82 47-82-47v-94zM600 350l82 47v94l-82 47-82-47v-94z"/>
    <path d="m172 438 28 16 28-16M372 438l28 16 28-16M572 438l28 16 28-16" stroke="#2563eb" stroke-width="18"/>
  </g>
  <circle cx="372" cy="150" r="14" fill="#fff"/><circle cx="428" cy="150" r="14" fill="#fff"/>
</svg>
